<svg width="32" height="32" viewBox="0 0 32 32" fill="none" xmlns="http://www.w3.org/2000/svg">
<g clip-path="url(#clip0_1486_11146)">
<path d="M32 0H0V32H32V0Z" fill="white"/>
<path d="M10.4547 24C8.77632 24 7.44762 23.4652 6.46857 22.3956C5.48952 21.3114 5 19.7509 5 17.7143V14.2857C5 12.3077 5.48952 10.7692 6.46857 9.67033C7.44762 8.55678 8.77632 8 10.4547 8C12.203 8 13.5317 8.51282 14.4408 9.53846C15.3639 10.5641 15.8255 11.956 15.8255 13.7143V14.1099H13.0562V13.7143C13.0562 13.2308 12.9792 12.7546 12.8254 12.2857C12.6715 11.8022 12.4058 11.4066 12.0282 11.0989C11.6505 10.7912 11.126 10.6374 10.4547 10.6374C9.83929 10.6374 9.32878 10.7985 8.92318 11.1209C8.53156 11.4286 8.23785 11.8462 8.04204 12.3736C7.86021 12.8864 7.7693 13.4505 7.7693 14.0659V17.9341C7.7693 18.9304 7.97211 19.7509 8.37771 20.3956C8.78332 21.0403 9.47564 21.3626 10.4547 21.3626C11.168 21.3626 11.7135 21.2161 12.0911 20.9231C12.4687 20.63 12.7205 20.2491 12.8464 19.7802C12.9862 19.3114 13.0562 18.8132 13.0562 18.2857V17.8901H15.8255V18.2857C15.8255 20.1026 15.3639 21.5092 14.4408 22.5055C13.5317 23.5018 12.203 24 10.4547 24Z" fill="black"/>
<path d="M18.5592 23.6923V8.30769H21.3285V20.9231H28V23.6923H18.5592Z" fill="black"/>
</g>
<defs>
<clipPath id="clip0_1486_11146">
<rect width="32" height="32" rx="6" fill="white"/>
</clipPath>
</defs>
</svg>
